<?xml version="1.0" encoding="utf-8"?>
<!-- Generator: Adobe Illustrator 23.0.6, SVG Export Plug-In . SVG Version: 6.00 Build 0)  -->
<svg version="1.1" id="Livello_1" xmlns="http://www.w3.org/2000/svg" xmlns:xlink="http://www.w3.org/1999/xlink" x="0px" y="0px"
	 viewBox="0 0 209 35" style="enable-background:new 0 0 209 35;" xml:space="preserve">
<style type="text/css">
	.st0{fill:#D6B048;}
</style>
<g>
	<g>
		<g>
			<path d="M15.8,24.9c0,0.4,0.1,1.1,0.6,1.2c0.3,0.1,0.6,0.1,0.8,0.1c0.1,0,0.1,0,0.1,0.1s-0.1,0.1-0.2,0.1c-0.2,0-1.5,0-1.9-0.1
				c-0.3,0-0.3-0.1-0.3-0.1c0-0.1,0-0.1,0.1-0.1s0.1-0.2,0-0.4l-0.5-5.9l0,0l-2.8,6c-0.2,0.5-0.3,0.6-0.4,0.6s-0.1-0.1-0.4-0.5
				c-0.3-0.6-1.3-2.6-1.4-2.7c-0.1-0.2-1.4-3-1.5-3.3l0,0l-0.5,5.3c0,0.2,0,0.4,0,0.6s0.1,0.3,0.3,0.4c0.2,0.1,0.4,0.1,0.4,0.1
				s0.1,0,0.1,0.1s-0.1,0.1-0.2,0.1c-0.4,0-1,0-1.1,0s-0.7,0-1,0c-0.1,0-0.2,0-0.2-0.1l0.1-0.1c0.1,0,0.2,0,0.4,0
				c0.4-0.1,0.4-0.5,0.5-1l0.8-7.5c0-0.1,0.1-0.2,0.1-0.2s0.1,0.1,0.2,0.2l3.5,7.2l3.4-7.2c0-0.1,0.1-0.2,0.2-0.2s0.1,0.1,0.1,0.3
				L15.8,24.9z"/>
			<path d="M23.3,21c0-1.8,0-2.1,0-2.5s-0.1-0.6-0.5-0.7c-0.1,0-0.3,0-0.4,0c0,0-0.1,0-0.1-0.1s0.1-0.1,0.2-0.1c0.5,0,1.2,0,1.3,0
				s0.8,0,1.1,0c0.1,0,0.2,0,0.2,0.1s0,0.1-0.1,0.1s-0.2,0-0.3,0c-0.3,0.1-0.4,0.2-0.4,0.7c0,0.4,0,0.7,0,2.5v1.6
				c0,1.7,0.4,2.4,0.9,2.8c0.6,0.5,1.1,0.6,1.7,0.6c0.7,0,1.4-0.3,1.8-0.8c0.5-0.7,0.7-1.6,0.7-2.8V21c0-1.8,0-2.1,0-2.5
				s-0.1-0.6-0.5-0.7c-0.1,0-0.3,0-0.4,0c0,0-0.1,0-0.1-0.1s0.1-0.1,0.2-0.1c0.5,0,1.2,0,1.2,0c0.1,0,0.6,0,1,0c0.1,0,0.2,0,0.2,0.1
				s0,0.1-0.1,0.1s-0.2,0-0.3,0c-0.3,0.1-0.4,0.2-0.4,0.7c0,0.4,0,0.7,0,2.5v1.2c0,1.2-0.1,2.6-1.1,3.4c-0.8,0.7-1.7,0.8-2.4,0.8
				c-0.4,0-1.5-0.1-2.4-0.8c-0.6-0.5-1-1.3-1-3L23.3,21L23.3,21z"/>
			<path d="M37.4,26.2c-0.2-0.1-0.2-0.1-0.2-0.4c0-0.6,0-1,0.1-1.2c0-0.1,0-0.2,0.1-0.2s0.1,0,0.1,0.1s0,0.3,0,0.4
				c0.2,0.8,0.9,1.2,1.7,1.2c1.1,0,1.7-0.8,1.7-1.5c0-0.8-0.3-1.2-1.3-2.1l-0.5-0.4c-1.2-1-1.5-1.7-1.5-2.5c0-1.2,0.9-2.1,2.4-2.1
				c0.5,0,0.8,0.1,1.1,0.1c0.2,0.1,0.3,0.1,0.4,0.1s0.1,0,0.1,0.1s0,0.4,0,1.2c0,0.2,0,0.3-0.1,0.3s-0.1-0.1-0.1-0.2
				s-0.1-0.4-0.2-0.6c-0.1-0.1-0.4-0.6-1.4-0.6c-0.8,0-1.4,0.5-1.4,1.3c0,0.7,0.3,1.1,1.4,1.9l0.3,0.2c1.4,1.1,1.7,1.8,1.7,2.7
				c0,0.5-0.2,1.3-1,1.9c-0.5,0.3-1.1,0.5-1.7,0.5C38.4,26.5,37.8,26.5,37.4,26.2z"/>
			<path d="M49.2,21c0-1.8,0-2.1,0-2.5s-0.1-0.6-0.5-0.7c-0.1,0-0.3,0-0.4,0s-0.1,0-0.1-0.1s0.1-0.1,0.2-0.1c0.5,0,1.2,0,1.3,0
				c0.1,0,2.4,0,2.6,0s0.4,0,0.5-0.1c0.1,0,0.1-0.1,0.2-0.1l0.1,0.1c0,0.1-0.1,0.2-0.1,0.5c0,0.1,0,0.6-0.1,0.8c0,0.1,0,0.1-0.1,0.1
				s-0.1-0.1-0.1-0.2s0-0.3-0.1-0.4c-0.1-0.2-0.2-0.3-0.8-0.4c-0.2,0-1.4,0-1.6,0c-0.1,0-0.1,0-0.1,0.1v3.2c0,0.1,0,0.1,0.1,0.1
				c0.2,0,1.6,0,1.8,0c0.3,0,0.4-0.1,0.5-0.2s0.1-0.2,0.2-0.2c0,0,0.1,0,0.1,0.1s-0.1,0.3-0.1,0.6c0,0.2-0.1,0.7-0.1,0.7
				c0,0.1,0,0.2-0.1,0.2s-0.1-0.1-0.1-0.1c0-0.1,0-0.2-0.1-0.4c-0.1-0.2-0.2-0.4-0.6-0.4C51.6,22,50.5,22,50.3,22
				c-0.1,0-0.1,0-0.1,0.1v1c0,0.4,0,1.7,0,2c0,0.8,0.2,0.9,1.3,0.9c0.3,0,0.8,0,1.1-0.1c0.3-0.1,0.4-0.4,0.5-0.8
				c0-0.1,0.1-0.2,0.1-0.2c0.1,0,0.1,0.1,0.1,0.2s-0.1,0.9-0.2,1.1c-0.1,0.3-0.2,0.3-0.6,0.3c-1.7,0-2.5-0.1-2.8-0.1
				c-0.1,0-0.8,0-1.1,0c-0.1,0-0.2,0-0.2-0.1c0,0,0-0.1,0.1-0.1s0.2,0,0.3-0.1c0.2-0.1,0.3-0.3,0.3-0.6c0.1-0.5,0.1-1.4,0.1-2.5
				L49.2,21L49.2,21z"/>
			<path d="M64.1,17.5c2.6,0,4.5,1.6,4.5,4.3c0,2.6-1.8,4.7-4.6,4.7c-3.2,0-4.5-2.4-4.5-4.5C59.5,20.2,60.9,17.5,64.1,17.5z
				 M64.3,26.1c1,0,3.2-0.6,3.2-3.9c0-2.8-1.7-4.2-3.5-4.2c-1.9,0-3.4,1.3-3.4,3.8C60.6,24.4,62.3,26.1,64.3,26.1z"/>
		</g>
		<g>
			<path class="st0" d="M74.5,27.9c-0.4-0.2-0.4-0.3-0.4-1.1c0-1.5,0.1-2.7,0.2-3.2c0-0.3,0.1-0.5,0.2-0.5c0.2,0,0.2,0.1,0.2,0.3
				c0,0.3,0,0.7,0.1,1.1c0.4,2.2,2.4,3.1,4.4,3.1c2.9,0,4.3-2.1,4.3-4c0-2.1-0.9-3.3-3.4-5.4l-1.3-1.1c-3.2-2.6-3.9-4.5-3.9-6.5
				c0-3.2,2.4-5.4,6.2-5.4c1.2,0,2,0.1,2.8,0.3c0.6,0.1,0.8,0.2,1.1,0.2c0.2,0,0.3,0.1,0.3,0.2S85.2,7,85.2,9.1
				c0,0.5-0.1,0.7-0.2,0.7c-0.2,0-0.2-0.2-0.2-0.4c0-0.4-0.2-1.2-0.4-1.5s-1-1.6-3.8-1.6c-2.1,0-3.7,1.3-3.7,3.5
				c0,1.7,0.8,2.7,3.7,5l0.8,0.7c3.5,2.8,4.4,4.7,4.4,7.1c0,1.2-0.5,3.5-2.6,5c-1.3,0.9-2.9,1.3-4.5,1.3
				C77.1,28.7,75.7,28.5,74.5,27.9z"/>
		</g>
		<g>
			<path d="M92.5,25.3c-1.1-1-1.4-2.3-1.4-3.4c0-0.8,0.3-2.1,1.3-3.1c0.7-0.7,1.7-1.2,3.5-1.2c0.5,0,1.1,0,1.7,0.1
				c0.4,0.1,0.8,0.2,1.2,0.2c0.1,0,0.2,0.1,0.2,0.1c0,0.1,0,0.2-0.1,0.6c0,0.4,0,1,0,1.2s0,0.2-0.1,0.2s-0.1-0.1-0.1-0.2
				c0-0.4-0.2-0.9-0.5-1.2c-0.4-0.3-1.3-0.7-2.3-0.7c-1.5,0-2.2,0.4-2.7,0.8c-0.8,0.8-1,1.8-1,3c0,2.2,1.7,4.2,4.2,4.2
				c0.9,0,1.5-0.1,2-0.6c0.2-0.2,0.4-0.8,0.4-1c0-0.1,0.1-0.2,0.1-0.2c0.1,0,0.1,0.1,0.1,0.2s-0.1,1.1-0.2,1.5
				c-0.1,0.2-0.1,0.2-0.3,0.3c-0.5,0.2-1.3,0.3-2.1,0.3C94.6,26.5,93.4,26.1,92.5,25.3z"/>
			<path d="M112.7,23c0,1.1,0,2,0.1,2.5c0,0.3,0.1,0.6,0.4,0.6c0.2,0,0.4,0.1,0.5,0.1s0.1,0,0.1,0.1s-0.1,0.1-0.2,0.1
				c-0.6,0-1.4,0-1.4,0s-0.8,0-1.1,0c-0.1,0-0.2,0-0.2-0.1c0,0,0-0.1,0.1-0.1s0.2,0,0.3-0.1c0.2-0.1,0.3-0.3,0.3-0.6
				c0.1-0.5,0.1-1.4,0.1-2.5v-1.2c0-0.1,0-0.1-0.1-0.1h-4.9c0,0-0.1,0-0.1,0.1V23c0,1.1,0,2,0.1,2.5c0,0.3,0.1,0.6,0.4,0.6
				c0.2,0,0.4,0.1,0.5,0.1s0.1,0,0.1,0.1s-0.1,0.1-0.2,0.1c-0.6,0-1.4,0-1.4,0s-0.8,0-1.1,0c-0.1,0-0.2,0-0.2-0.1c0,0,0-0.1,0.1-0.1
				s0.2,0,0.3-0.1c0.2-0.1,0.3-0.3,0.3-0.6c0.1-0.5,0.1-1.4,0.1-2.5v-2c0-1.8,0-2.1,0-2.5s-0.1-0.6-0.5-0.7c-0.1,0-0.3,0-0.4,0
				s-0.1,0-0.1-0.1s0.1-0.1,0.2-0.1c0.5,0,1.2,0,1.3,0s0.8,0,1.1,0c0.1,0,0.2,0,0.2,0.1s-0.1,0.1-0.1,0.1c-0.1,0-0.2,0-0.3,0
				c-0.3,0.1-0.4,0.2-0.4,0.7c0,0.4,0,0.7,0,2.5v0.2c0,0.1,0,0.1,0.1,0.1h4.9c0,0,0.1,0,0.1-0.1V21c0-1.8,0-2.1,0-2.5
				s-0.1-0.6-0.5-0.7c-0.1,0-0.3,0-0.4,0s-0.1,0-0.1-0.1s0.1-0.1,0.2-0.1c0.5,0,1.2,0,1.3,0s0.8,0,1.1,0c0.1,0,0.2,0,0.2,0.1
				s-0.1,0.1-0.1,0.1c-0.1,0-0.1,0-0.3,0c-0.3,0.1-0.4,0.2-0.4,0.7c0,0.4,0,0.7,0,2.5L112.7,23L112.7,23z"/>
			<path d="M121.7,24.8c0,0.9,0.1,1.2,0.4,1.3c0.2,0.1,0.5,0.1,0.6,0.1s0.1,0,0.1,0.1s-0.1,0.1-0.2,0.1c-0.7,0-1.1,0-1.2,0
				s-0.6,0-1.1,0c-0.1,0-0.2,0-0.2-0.1s0-0.1,0.1-0.1s0.3,0,0.5-0.1c0.3-0.1,0.3-0.4,0.3-1.5V18c0-0.4,0-0.6,0.1-0.6
				s0.3,0.2,0.4,0.4c0.2,0.2,1.9,2.1,3.7,3.9c1.1,1.2,2.4,2.6,2.8,3l-0.1-5.8c0-0.8-0.1-1-0.4-1.1c-0.2-0.1-0.5-0.1-0.6-0.1
				s-0.1,0-0.1-0.1s0.1-0.1,0.2-0.1c0.5,0,1.1,0,1.2,0c0.1,0,0.5,0,1,0c0.1,0,0.2,0,0.2,0.1s-0.1,0.1-0.1,0.1c-0.1,0-0.1,0-0.3,0
				c-0.4,0.1-0.4,0.3-0.4,1v6.7c0,0.8,0,0.8-0.1,0.8s-0.2-0.1-0.8-0.7c-0.1-0.1-1.8-1.8-3-3.1c-1.3-1.4-2.6-2.9-3-3.3L121.7,24.8z"
				/>
			<path d="M136.8,21c0-1.8,0-2.1,0-2.5s-0.1-0.6-0.5-0.7c-0.1,0-0.3,0-0.4,0c-0.1,0-0.1,0-0.1-0.1s0.1-0.1,0.2-0.1
				c0.5,0,1.2,0,1.3,0s2.4,0,2.6,0c0.2,0,0.4,0,0.5-0.1c0.1,0,0.1-0.1,0.2-0.1l0.1,0.1c0,0.1-0.1,0.2-0.1,0.5c0,0.1,0,0.6-0.1,0.8
				c0,0.1,0,0.1-0.1,0.1s-0.1-0.1-0.1-0.2s0-0.3-0.1-0.4c-0.1-0.2-0.2-0.3-0.8-0.4c-0.2,0-1.4,0-1.6,0c-0.1,0-0.1,0-0.1,0.1v3.2
				c0,0.1,0,0.1,0.1,0.1s1.6,0,1.8,0c0.3,0,0.4-0.1,0.5-0.2s0.1-0.2,0.2-0.2c0,0,0.1,0,0.1,0.1s-0.1,0.3-0.1,0.6
				c0,0.2-0.1,0.7-0.1,0.7c0,0.1,0,0.2-0.1,0.2s-0.1-0.1-0.1-0.1c0-0.1,0-0.2-0.1-0.4c-0.1-0.2-0.1-0.4-0.6-0.4
				c-0.3,0-1.4-0.1-1.6-0.1c-0.1,0-0.1,0-0.1,0.1v1c0,0.4,0,1.7,0,2c0,0.8,0.2,0.9,1.3,0.9c0.3,0,0.8,0,1.1-0.1s0.4-0.4,0.5-0.8
				c0-0.1,0.1-0.2,0.1-0.2c0.1,0,0.1,0.1,0.1,0.2s-0.1,0.9-0.1,1.1c-0.1,0.3-0.2,0.3-0.6,0.3c-1.7,0-2.5-0.1-2.8-0.1
				c-0.1,0-0.8,0-1.1,0c-0.1,0-0.2,0-0.2-0.1c0,0,0-0.1,0.1-0.1s0.2,0,0.4-0.1s0.3-0.3,0.3-0.6c0.1-0.5,0.1-1.4,0.1-2.5L136.8,21
				L136.8,21z"/>
			<path d="M149.4,23c0,1.1,0,2,0.1,2.5c0,0.3,0.1,0.6,0.4,0.6c0.2,0,0.4,0.1,0.5,0.1s0.1,0,0.1,0.1s-0.1,0.1-0.2,0.1
				c-0.6,0-1.4,0-1.4,0s-0.8,0-1.1,0c-0.1,0-0.2,0-0.2-0.1c0,0,0-0.1,0.1-0.1s0.2,0,0.4-0.1s0.3-0.3,0.3-0.6
				c0.1-0.5,0.1-1.4,0.1-2.5v-2c0-1.8,0-2.1,0-2.5s-0.1-0.6-0.4-0.6c-0.1,0-0.3-0.1-0.4-0.1c-0.1,0-0.1,0-0.1-0.1s0.1-0.1,0.2-0.1
				c0.4,0,1.1,0,1.2,0s0.8,0,1.1,0c0.1,0,0.2,0,0.2,0.1s-0.1,0.1-0.1,0.1c-0.1,0-0.1,0-0.3,0c-0.3,0.1-0.4,0.2-0.4,0.7
				c0,0.4,0,0.7,0,2.5L149.4,23L149.4,23z"/>
			<path d="M158.1,21c0-1.8,0-2.1,0-2.5s-0.1-0.6-0.5-0.7c-0.1,0-0.3,0-0.4,0c-0.1,0-0.1,0-0.1-0.1s0.1-0.1,0.2-0.1
				c0.5,0,1.2,0,1.3,0c0.3,0,0.7,0,1.2,0c1.9,0,2.3,1.2,2.3,1.7c0,0.9-0.5,1.5-1.1,2.1c0.9,0.3,2,1.1,2,2.4c0,1.2-1,2.5-2.9,2.5
				c-0.3,0-1.4-0.1-1.5-0.1s-0.8,0-1.1,0c-0.1,0-0.2,0-0.2-0.1c0,0,0-0.1,0.1-0.1s0.2,0,0.4-0.1s0.3-0.3,0.3-0.6
				c0.1-0.5,0.1-1.4,0.1-2.5L158.1,21L158.1,21z M159,21.3c0,0.1,0,0.1,0.1,0.1s0.3,0.1,0.7,0.1c0.6,0,0.8,0,1.1-0.3
				c0.2-0.3,0.4-0.7,0.4-1.2c0-1-0.4-2-1.6-2c-0.1,0-0.4,0-0.6,0.1c-0.1,0-0.1,0.1-0.1,0.1L159,21.3L159,21.3z M159,22.5
				c0,0.9,0,2.3,0,2.5c0,0.6,0,0.7,0.4,0.9c0.3,0.2,0.8,0.2,1,0.2c0.6,0,1.6-0.3,1.6-1.6c0-0.7-0.2-1.7-1.1-2.3
				c-0.4-0.3-0.7-0.3-1-0.3c-0.1,0-0.7,0-0.9,0c-0.1,0-0.1,0-0.1,0.1L159,22.5L159,22.5z"/>
			<path d="M170.6,21c0-1.8,0-2.1,0-2.5s-0.1-0.6-0.5-0.7c-0.1,0-0.3,0-0.4,0c-0.1,0-0.1,0-0.1-0.1s0.1-0.1,0.2-0.1
				c0.5,0,1.2,0,1.3,0s2.4,0,2.6,0c0.2,0,0.4,0,0.5-0.1c0.1,0,0.1-0.1,0.2-0.1l0.1,0.1c0,0.1-0.1,0.2-0.1,0.5c0,0.1,0,0.6-0.1,0.8
				c0,0.1,0,0.1-0.1,0.1s-0.1-0.1-0.1-0.2s0-0.3-0.1-0.4c-0.1-0.2-0.2-0.3-0.8-0.4c-0.2,0-1.4,0-1.6,0c-0.1,0-0.1,0-0.1,0.1v3.2
				c0,0.1,0,0.1,0.1,0.1s1.6,0,1.8,0c0.3,0,0.4-0.1,0.5-0.2s0.1-0.2,0.2-0.2c0,0,0.1,0,0.1,0.1s-0.1,0.3-0.1,0.6
				c0,0.2-0.1,0.7-0.1,0.7c0,0.1,0,0.2-0.1,0.2s-0.1-0.1-0.1-0.1c0-0.1,0-0.2-0.1-0.4c-0.1-0.2-0.1-0.4-0.6-0.4
				c-0.3,0-1.4-0.1-1.6-0.1c-0.1,0-0.1,0-0.1,0.1v1c0,0.4,0,1.7,0,2c0,0.8,0.2,0.9,1.3,0.9c0.3,0,0.8,0,1.1-0.1s0.4-0.4,0.5-0.8
				c0-0.1,0.1-0.2,0.1-0.2c0.1,0,0.1,0.1,0.1,0.2s-0.1,0.9-0.1,1.1c-0.1,0.3-0.2,0.3-0.6,0.3c-1.7,0-2.5-0.1-2.8-0.1
				c-0.1,0-0.8,0-1.1,0c-0.1,0-0.2,0-0.2-0.1c0,0,0-0.1,0.1-0.1s0.2,0,0.3-0.1c0.2-0.1,0.3-0.3,0.3-0.6c0.1-0.5,0.1-1.4,0.1-2.5
				L170.6,21L170.6,21z"/>
			<path d="M182.2,21c0-1.8,0-2.1,0-2.5s-0.1-0.6-0.5-0.7c-0.1,0-0.3,0-0.4,0c-0.1,0-0.1,0-0.1-0.1s0.1-0.1,0.2-0.1
				c0.5,0,1.2,0,1.3,0s1,0,1.4,0c0.7,0,1.5,0.1,2.1,0.5c0.3,0.2,0.8,0.8,0.8,1.6c0,0.8-0.4,1.7-1.4,2.7c0.9,1.2,1.7,2.2,2.4,2.9
				c0.6,0.7,1.1,0.8,1.4,0.8c0.2,0,0.4,0,0.4,0c0.1,0,0.1,0,0.1,0.1s-0.1,0.1-0.3,0.1h-0.8c-0.6,0-0.9-0.1-1.2-0.2
				c-0.5-0.3-0.9-0.8-1.6-1.7c-0.5-0.6-1-1.4-1.2-1.7c-0.1-0.1-0.1-0.1-0.1-0.1h-1.4c-0.1,0-0.1,0-0.1,0.1V23c0,1.1,0,2,0.1,2.5
				c0,0.3,0.1,0.6,0.4,0.6c0.2,0,0.4,0.1,0.5,0.1s0.1,0,0.1,0.1s-0.1,0.1-0.2,0.1c-0.6,0-1.4,0-1.4,0s-0.7,0-1.1,0
				c-0.1,0-0.2,0-0.2-0.1c0,0,0-0.1,0.1-0.1s0.2,0,0.3-0.1c0.2-0.1,0.3-0.3,0.3-0.6c0.1-0.5,0.1-1.4,0.1-2.5L182.2,21L182.2,21z
				 M183.1,22c0,0.1,0,0.1,0.1,0.1c0.2,0.1,0.7,0.2,1.2,0.2c0.3,0,0.6,0,0.9-0.2c0.4-0.3,0.7-0.9,0.7-1.8c0-1.4-0.8-2.3-2-2.3
				c-0.3,0-0.7,0-0.8,0.1c-0.1,0-0.1,0.1-0.1,0.1L183.1,22L183.1,22z"/>
			<path d="M201.1,23.5c0-0.9-0.1-1.1-0.5-1.2c-0.1,0-0.3,0-0.4,0c-0.1,0-0.1,0-0.1-0.1s0.1-0.1,0.2-0.1c0.5,0,1.2,0,1.3,0
				s0.8,0,1.1,0c0.1,0,0.2,0,0.2,0.1s-0.1,0.1-0.1,0.1c-0.1,0-0.1,0-0.3,0c-0.3,0.1-0.4,0.2-0.4,0.7c0,0.4,0,0.7,0,1.2v1.3
				c0,0.5,0,0.5-0.1,0.6c-0.7,0.4-1.8,0.5-2.4,0.5c-0.9,0-2.5-0.1-3.8-1.2c-0.7-0.6-1.4-1.8-1.4-3.3c0-1.8,0.9-3.1,1.9-3.8
				c1-0.6,2.2-0.7,3.1-0.7c0.7,0,1.5,0.2,1.8,0.2c0.2,0.1,0.6,0.1,0.9,0.1c0.1,0,0.1,0.1,0.1,0.1c0,0.2-0.1,0.5-0.1,1.6
				c0,0.2,0,0.2-0.1,0.2s-0.1-0.1-0.1-0.2c0-0.2-0.1-0.5-0.2-0.8c-0.3-0.4-1.2-0.9-2.7-0.9c-0.7,0-1.6,0.1-2.5,0.8
				c-0.7,0.5-1.1,1.6-1.1,2.9c0,1.6,0.8,2.8,1.2,3.2c0.9,0.9,2,1.2,3,1.2c0.4,0,1-0.1,1.3-0.2c0.1-0.1,0.2-0.2,0.2-0.4L201.1,23.5
				L201.1,23.5z"/>
		</g>
	</g>
</g>
</svg>
